<svg width="40" height="41" viewBox="0 0 40 41" fill="none" xmlns="http://www.w3.org/2000/svg">
<g clip-path="url(#clip0_22_71)">
<path d="M20 34.25C19.7125 34.25 19.4237 34.1512 19.19 33.9525C18.8875 33.695 11.7625 27.5775 8.79 20.905C8.50875 20.275 8.7925 19.535 9.42375 19.255C10.0525 18.975 10.7925 19.2575 11.0738 19.8888C13.2475 24.77 18.045 29.5125 19.9788 31.3013C23.3912 27.9888 30 20.5863 30 15.7875C30 10.115 25.5138 5.5 20 5.5C14.4863 5.5 10 10.115 10 15.7875C10 16.4775 9.44 17.0375 8.75 17.0375C8.06 17.0375 7.5 16.4775 7.5 15.7875C7.5 8.73625 13.1075 3 20 3C26.8925 3 32.5 8.73625 32.5 15.7875C32.5 23.1775 21.32 33.4863 20.8437 33.9225C20.605 34.14 20.3025 34.25 20 34.25Z" fill="#F7FFFF"/>
<path d="M20 20.5C17.2425 20.5 15 18.2575 15 15.5C15 12.7425 17.2425 10.5 20 10.5C22.7575 10.5 25 12.7425 25 15.5C25 18.2575 22.7575 20.5 20 20.5ZM20 13C18.6212 13 17.5 14.1212 17.5 15.5C17.5 16.8788 18.6212 18 20 18C21.3788 18 22.5 16.8788 22.5 15.5C22.5 14.1212 21.3788 13 20 13Z" fill="#F7FFFF"/>
<path d="M36.25 38.0001H3.75001C3.30501 38.0001 2.89251 37.7638 2.66876 37.3776C2.44501 36.9913 2.44376 36.5176 2.66501 36.1301L7.66501 27.3801C8.00751 26.7813 8.77126 26.5713 9.37001 26.9151C9.96876 27.2576 10.1775 28.0213 9.83501 28.6201L5.90376 35.5001H34.095L30.1638 28.6201C29.8213 28.0213 30.03 27.2576 30.6288 26.9151C31.2275 26.5701 31.9913 26.7813 32.3338 27.3801L37.3338 36.1301C37.555 36.5176 37.5538 36.9913 37.33 37.3776C37.1075 37.7638 36.695 38.0001 36.25 38.0001Z" fill="#F7FFFF"/>
</g>
<defs>
<clipPath id="clip0_22_71">
<rect width="40" height="40" fill="white" transform="translate(0 0.5)"/>
</clipPath>
</defs>
</svg>
