<svg width="40" height="41" viewBox="0 0 40 41" fill="none" xmlns="http://www.w3.org/2000/svg">
<path d="M39.232 16.2555C40.3664 22.9633 36.8148 29.3742 30.3906 32.5156C31.4063 35.1797 29.4219 38 26.6156 38C25.5816 37.9992 24.5873 37.6017 23.8377 36.8894C23.0881 36.1772 22.6403 35.2045 22.5867 34.1719C22.0836 34.1867 17.5711 34.1719 16.6234 34.1219C16.602 34.6521 16.4763 35.1728 16.2536 35.6544C16.0308 36.136 15.7153 36.569 15.3251 36.9285C14.9349 37.2881 14.4776 37.5673 13.9795 37.75C13.4813 37.9328 12.952 38.0156 12.4219 37.9938C9.77657 37.8875 7.89454 35.2719 8.75 32.6875C5.84297 31.6633 3.08282 29.9633 0.967192 27.1563C-0.0484328 25.8063 0.929692 23.8906 2.59532 23.8906C6.21329 23.8906 5.1125 19.6586 5.96641 15.2766C7.40625 7.9375 15.0875 3 22.507 3C30.5133 3 37.9094 8.52109 39.232 16.2555ZM29.1805 30.8344C32.4617 29.3359 35.5344 26.4039 36.7031 22.8547C39.8656 13.2383 31.6914 5.04219 22.507 5.04219C15.9875 5.04219 9.20079 9.37187 7.97032 15.6672C7.22579 19.4883 8.36094 25.9289 2.59922 25.9289C4.54766 28.5156 7.15625 30.0398 9.92188 30.9328C11.8484 29.2297 14.9117 29.7242 16.1586 32.0531C17.2695 32.1313 22.3453 32.1453 23.0258 32.1172C23.3006 31.5805 23.692 31.1121 24.1715 30.7465C24.6509 30.3808 25.2061 30.1272 25.7964 30.0041C26.3867 29.8811 26.997 29.8918 27.5826 30.0355C28.1682 30.1792 28.7142 30.4521 29.1805 30.8344ZM16.025 15.1195C16.025 12.4055 19.9969 12.4047 19.9969 15.1195C19.9969 17.8344 16.025 17.8336 16.025 15.1195ZM25.132 15.1195C25.132 12.4055 29.1055 12.4047 29.1055 15.1195C29.1055 17.8344 25.132 17.8344 25.132 15.1195ZM15.5531 20.6422C15.2844 19.3188 17.2859 18.9094 17.5547 20.2352L17.5594 20.257C17.8828 21.9305 19.8914 23.6945 22.5688 23.6219C25.3563 23.5484 27.1977 21.8867 27.5773 20.2805C27.9258 19.0266 29.8117 19.4711 29.5672 20.7492C29.1586 22.482 27.1289 25.593 22.4219 25.6633C19.0977 25.6633 16.1031 23.4883 15.5547 20.6437L15.5531 20.6422Z" fill="#F7FFFF"/>
</svg>
