<svg width="35" height="35" viewBox="0 0 35 35" fill="none" xmlns="http://www.w3.org/2000/svg">
<path d="M17.5 8.39722C12.5605 8.39722 8.46774 12.4194 8.46774 17.4295C8.46774 22.4396 12.4899 26.4617 17.5 26.4617C22.5101 26.4617 26.5323 22.369 26.5323 17.4295C26.5323 12.49 22.4395 8.39722 17.5 8.39722ZM17.5 23.2158C14.3246 23.2158 11.7137 20.6049 11.7137 17.4295C11.7137 14.2541 14.3246 11.6432 17.5 11.6432C20.6754 11.6432 23.2863 14.2541 23.2863 17.4295C23.2863 20.6049 20.6754 23.2158 17.5 23.2158Z" fill="#F0F4F5"/>
<path d="M26.8851 10.2319C28.0153 10.2319 28.9315 9.31571 28.9315 8.18553C28.9315 7.05535 28.0153 6.13916 26.8851 6.13916C25.7549 6.13916 24.8387 7.05535 24.8387 8.18553C24.8387 9.31571 25.7549 10.2319 26.8851 10.2319Z" fill="#F0F4F5"/>
<path d="M32.1774 2.89314C30.3427 0.987903 27.7319 0 24.7681 0H10.2319C4.09274 0 0 4.09274 0 10.2319V24.6976C0 27.7319 0.987903 30.3427 2.96371 32.248C4.86895 34.0827 7.40928 35 10.3024 35H24.6976C27.7319 35 30.2722 34.0121 32.1069 32.248C34.0121 30.4133 35 27.8024 35 24.7681V10.2319C35 7.26814 34.0121 4.72782 32.1774 2.89314ZM31.8952 24.7681C31.8952 26.9556 31.119 28.7198 29.8488 29.9194C28.5786 31.119 26.8145 31.754 24.6976 31.754H10.3024C8.18548 31.754 6.42137 31.119 5.15121 29.9194C3.88105 28.6492 3.24597 26.8851 3.24597 24.6976V10.2319C3.24597 8.11492 3.88105 6.35081 5.15121 5.08065C6.35081 3.88105 8.18548 3.24597 10.3024 3.24597H24.8387C26.9556 3.24597 28.7198 3.88105 29.9899 5.15121C31.1895 6.42137 31.8952 8.18548 31.8952 10.2319V24.7681Z" fill="#F0F4F5"/>
</svg>
